<?xml version="1.0" standalone="no"?>
<!DOCTYPE svg PUBLIC "-//W3C//DTD SVG 20010904//EN"
 "http://www.w3.org/TR/2001/REC-SVG-20010904/DTD/svg10.dtd">
<svg version="1.0" xmlns="http://www.w3.org/2000/svg"
 width="1542.000000pt" height="328.000000pt" viewBox="0 0 1542.000000 328.000000"
 preserveAspectRatio="xMidYMid meet">
<metadata>
Created by potrace 1.13, written by Peter Selinger 2001-2015
</metadata>
<g transform="translate(0.000000,328.000000) scale(0.100000,-0.100000)"
fill="#000000" stroke="none">
<path d="M0 1655 l0 -1545 110 0 110 0 0 1545 0 1545 -110 0 -110 0 0 -1545z"/>
<path d="M440 1655 l0 -1545 110 0 110 0 2 972 3 971 729 -971 728 -972 344 0
344 0 0 1545 0 1545 -345 0 -345 0 0 -991 0 -991 -732 991 -731 991 -109 0
-108 0 0 -1545z"/>
<path d="M9914 2528 c-457 -30 -876 -341 -1022 -758 -57 -164 -67 -234 -66
-470 0 -203 2 -221 28 -315 53 -195 150 -365 296 -519 182 -192 407 -316 665
-367 92 -18 358 -18 450 0 156 31 360 117 469 197 l49 36 -74 74 c-40 41 -77
74 -81 74 -5 0 -43 -20 -86 -45 -95 -56 -207 -99 -306 -119 -98 -21 -294 -21
-393 0 -169 35 -336 117 -469 231 -122 104 -246 292 -293 447 -12 37 -21 70
-21 72 0 2 49 4 110 4 l109 0 45 -92 c114 -234 293 -382 531 -439 125 -30 303
-23 420 15 79 26 185 79 185 94 0 4 -33 41 -74 81 l-74 73 -64 -26 c-217 -86
-452 -36 -617 134 -48 49 -101 126 -101 147 0 11 155 13 835 13 l835 0 0 228
c0 264 -14 379 -64 524 -138 405 -559 692 -1041 710 -44 2 -125 0 -181 -4z
m291 -569 c172 -53 284 -187 319 -381 l7 -38 -522 0 -522 0 7 43 c24 152 176
313 351 372 115 38 245 40 360 4z"/>
<path d="M12888 2528 c-175 -16 -337 -98 -495 -252 l-53 -50 0 137 0 138 -107
-3 -108 -3 -3 -1192 -2 -1193 109 0 110 0 3 708 c4 770 3 748 63 880 28 62
108 149 176 193 102 65 261 88 376 54 70 -21 142 -88 176 -162 54 -121 57
-170 57 -954 l0 -719 335 0 335 0 0 685 c0 754 2 777 61 901 15 33 52 85 81
114 110 112 218 155 376 148 81 -3 107 -8 154 -31 100 -49 161 -133 201 -275
21 -75 21 -97 25 -810 l3 -732 330 0 329 0 0 799 c0 854 -2 886 -52 1041 -93
290 -329 496 -643 561 -138 29 -332 27 -456 -4 -239 -62 -445 -193 -575 -369
l-42 -58 -28 48 c-136 235 -367 389 -604 404 -30 2 -89 0 -132 -4z"/>
<path d="M6054 2483 c4 -10 214 -548 468 -1195 l461 -1178 118 0 118 0 -14 33
c-7 17 -217 550 -465 1182 -249 633 -457 1156 -462 1163 -7 8 -45 12 -120 12
-101 0 -110 -2 -104 -17z"/>
<path d="M6520 2491 c0 -5 192 -497 426 -1093 234 -596 444 -1129 466 -1186
l39 -102 117 0 117 0 459 1176 c252 647 461 1185 463 1195 5 19 -4 19 -338 17
l-344 -3 -291 -738 c-160 -405 -293 -739 -295 -741 -2 -3 -134 325 -293 727
-159 403 -293 738 -299 745 -11 14 -227 17 -227 3z"/>
<path d="M3500 1758 c0 -755 6 -899 40 -1034 44 -169 102 -275 215 -388 262
-262 696 -342 1006 -185 74 37 174 119 241 197 l53 62 3 -150 3 -150 109 0
110 0 0 1190 0 1190 -110 0 -110 0 0 -677 c-1 -757 -3 -784 -65 -909 -106
-216 -386 -322 -597 -227 -99 44 -160 126 -201 271 -21 75 -21 95 -25 810 l-3
732 -334 0 -335 0 0 -732z"/>
<path d="M5500 1300 l0 -1190 110 0 110 0 0 1190 0 1190 -110 0 -110 0 0
-1190z"/>
<path d="M11690 1300 l0 -1190 110 0 110 0 0 1190 0 1190 -110 0 -110 0 0
-1190z"/>
</g>
</svg>
